<svg xmlns="http://www.w3.org/2000/svg" viewBox="0 0 500 500"><defs><style>.cls-1{fill:none;stroke:#0071bc;stroke-miterlimit:10;stroke-width:43px;}.cls-2{fill:#f7931e;}.cls-3{fill:#1b1464;}</style></defs><g id="Capa_2" data-name="Capa 2"><path class="cls-1" d="M210.28,84H156.79c-6.13,0-12,3.21-16.34,8.94L30.07,238.78c-4.61,6.09-4.61,16,0,22L142.3,409.07c4.34,5.73,10.22,8.94,16.35,8.94h51.63"/><path class="cls-2" d="M197.31,142.83a163.64,163.64,0,0,1-5.3,16.88c-2,5.47-4.14,10.79-6.42,16q-6.87,15.69-15.05,30.39c-5.41,9.83-11.21,19.37-17.32,28.68-3,4.66-6.19,9.24-9.38,13.79l-.6.85-.3.42-.14.2,0,0c.12-.07.17-.24.25-.27a.2.2,0,0,0,.06-.11.09.09,0,0,0,.06,0c0-.06.06,0,.06,0a4.63,4.63,0,0,0,0,.74c0,.32.05.61,0,.47a.15.15,0,0,0-.06,0s0-.07-.07-.1-.13-.19-.24-.27l0,0s0,0,0,0l.08.11.3.42.61.84,1.21,1.7c3.2,4.54,6.35,9.12,9.4,13.78,6.1,9.31,11.92,18.83,17.33,28.66s10.47,19.93,15,30.4c2.28,5.24,4.44,10.57,6.41,16a160.79,160.79,0,0,1,5.27,16.9,161.58,161.58,0,0,1-14.83-9.66c-4.74-3.38-9.27-6.91-13.7-10.52q-13.26-10.86-25.18-22.72c-8-7.88-15.59-16.06-22.89-24.46-3.65-4.2-7.2-8.47-10.71-12.78l-1.3-1.63-.65-.81-.33-.41-.23-.31-.34-.46a38.76,38.76,0,0,1-2.47-3.78c-.36-.64-.74-1.29-1.06-1.93s-.62-1.29-.91-1.95a43.46,43.46,0,0,1-3.59-15.7,44.51,44.51,0,0,1,2.18-15.67,40.1,40.1,0,0,1,1.54-3.91l.92-1.94c.34-.65.7-1.29,1.07-1.93a39.53,39.53,0,0,1,2.49-3.77l.34-.46.17-.22.33-.4L110,223c3.51-4.31,7.06-8.58,10.73-12.77,7.3-8.4,14.9-16.57,22.9-24.45S160,170.29,168.82,163c4.42-3.61,9-7.15,13.68-10.53A162.76,162.76,0,0,1,197.31,142.83Z"/><path class="cls-1" d="M287.4,84h53.49c6.13,0,12,3.21,16.34,8.94l110.38,145.8c4.61,6.08,4.61,16,0,22L355.38,409C351,414.75,345.16,418,339,418H287.4"/><path class="cls-2" d="M300.37,142.78a162.76,162.76,0,0,1,14.81,9.68c4.73,3.38,9.26,6.92,13.68,10.53q13.25,10.88,25.17,22.73c8,7.88,15.6,16.05,22.9,24.45,3.67,4.19,7.22,8.46,10.73,12.77l.66.81.33.4.17.22.34.46a39.53,39.53,0,0,1,2.49,3.77c.37.64.73,1.28,1.07,1.93l.92,1.93c.62,1.31,1.07,2.6,1.54,3.91a44.6,44.6,0,0,1,2.18,15.68,43.46,43.46,0,0,1-3.59,15.7c-.29.65-.59,1.3-.91,1.94s-.7,1.3-1.06,1.94a38.76,38.76,0,0,1-2.47,3.78l-.34.46-.23.31-.33.41-.65.81-1.3,1.63c-3.51,4.3-7.06,8.58-10.71,12.78-7.3,8.4-14.89,16.58-22.89,24.46S336.54,331.75,327.7,339c-4.43,3.61-9,7.14-13.7,10.52a163.69,163.69,0,0,1-14.83,9.66,160.79,160.79,0,0,1,5.27-16.9c2-5.48,4.13-10.8,6.41-16q6.86-15.71,15-30.4c5.41-9.83,11.23-19.36,17.33-28.66,3-4.66,6.2-9.24,9.4-13.78l1.21-1.7.61-.84.3-.42.08-.11s0,0,0,0l0,0c-.11.09-.17.24-.24.28s0,.08-.07.1l-.06,0c0,.15,0-.14,0-.46a4.77,4.77,0,0,0,0-.75s0,0,.06,0a.09.09,0,0,0,.06,0,.24.24,0,0,0,.06.11c.08,0,.13.2.25.27l0,0-.14-.2-.3-.42-.6-.86c-3.19-4.54-6.34-9.12-9.38-13.79-6.1-9.3-11.91-18.84-17.32-28.67s-10.47-19.93-15.05-30.39c-2.28-5.24-4.45-10.56-6.42-16A163.64,163.64,0,0,1,300.37,142.78Z"/><path class="cls-3" d="M286.6,113.13a182.14,182.14,0,0,1,1,18.8c.1,6.2-.05,12.34-.32,18.44-.58,12.19-1.71,24.23-3.32,36.14a538.7,538.7,0,0,1-14.42,70.14,533.49,533.49,0,0,1-23.29,67.72q-7,16.61-15.57,32.78c-2.88,5.39-5.88,10.74-9.13,16a182.57,182.57,0,0,1-10.5,15.64A177.16,177.16,0,0,1,210,370c-.11-6.21,0-12.34.3-18.44.57-12.2,1.7-24.24,3.31-36.14a557.52,557.52,0,0,1,37.83-137.84q7-16.59,15.56-32.78c2.87-5.39,5.87-10.74,9.12-16A182.17,182.17,0,0,1,286.6,113.13Z"/></g></svg>