<svg xmlns="http://www.w3.org/2000/svg" viewBox="0 0 500 500"><defs><style>.cls-1{fill:#1b1464;}.cls-2{fill:#0071bc;}.cls-3{fill:none;stroke:#0071bc;stroke-miterlimit:10;stroke-width:21px;}.cls-4{fill:#f7931e;}</style></defs><g id="Capa_1" data-name="Capa 1"><path class="cls-1" d="M260.56,242.07l10.5-59.63h11.17l-10.5,59.63Zm7.26-13.94.55-10.84q10.2-1.42,17-6.34a36.07,36.07,0,0,0,10.79-12.28,53.66,53.66,0,0,0,5.52-16.23H313a63.13,63.13,0,0,1-7.87,21.73,50,50,0,0,1-15.18,16.13A49.25,49.25,0,0,1,267.82,228.13Zm24,13.94-8-26.12,10.63-4.28,10,30.4Z"/><path class="cls-1" d="M326.05,242.91q-7.86,0-12.24-4.26t-4.39-11.86q0-14.21,6.55-22.13t18.23-7.94q7.85,0,12.24,4.37t4.38,12.17q0,14-6.55,21.82T326.05,242.91Zm2-10.79a9.18,9.18,0,0,0,8.12-4.52q2.93-4.51,2.92-12.53a8.13,8.13,0,0,0-1.76-5.56,6.28,6.28,0,0,0-5-2,9.41,9.41,0,0,0-8.27,4.51q-3,4.51-3,12.54a7.91,7.91,0,0,0,1.82,5.56A6.58,6.58,0,0,0,328.07,232.12Z"/><path class="cls-1" d="M365.38,243q-6.09,0-9.43-3.27t-3.34-9.24a29,29,0,0,1,3.34-13.9,32.11,32.11,0,0,1,9.34-10.65,44.89,44.89,0,0,1,14-6.8,61.63,61.63,0,0,1,17.49-2.37h.76l-6.76,10.79a37.33,37.33,0,0,0-13.46,2.9,24.92,24.92,0,0,0-9.58,6.91,14.84,14.84,0,0,0-3.55,9.68,4.49,4.49,0,0,0,5.13,5.16q5.11,0,8.82-4.74t5.37-13.36l-.21,18.6h-4.87l4.37-6.5q-2,8-6.57,12.38A15.13,15.13,0,0,1,365.38,243Zm28.6-.46a37.52,37.52,0,0,1-4.75-.31,11.18,11.18,0,0,1-4.16-1.39,6,6,0,0,1-2.6-3.25,11.6,11.6,0,0,1-.08-6l.79-15.49,3.49-19.66c.47-2.57.4-4.45-.23-5.64A3.53,3.53,0,0,0,383,189a15.1,15.1,0,0,0-2.54.21,21.74,21.74,0,0,0-2.71.67l-1.39-10.58c1.26-.31,2.53-.56,3.8-.77a23.6,23.6,0,0,1,3.84-.32q8.66,0,12.08,5.06t1.49,16.1l-4.75,27.17a14.51,14.51,0,0,0-.29,3.74,2.34,2.34,0,0,0,1.34,2,10.08,10.08,0,0,0,4.12.6h1.76l-1.68,9.62Z"/><path class="cls-1" d="M423.1,232.12a24.88,24.88,0,0,0,6.47-.93,31.8,31.8,0,0,0,6.63-2.6l2.9,9.95a29,29,0,0,1-8.52,3.36,40.32,40.32,0,0,1-8.7,1q-9.24,0-14.42-4.77t-5.19-13.24a30.9,30.9,0,0,1,3.4-14.81,24.57,24.57,0,0,1,9.52-9.84,27.9,27.9,0,0,1,14.25-3.53q6.88,0,10.77,3.44t3.89,9.58q0,8.1-8.32,11.88t-24.27,4l-1.72-8q10.92-.07,17-1.95c4.06-1.24,6.09-2.95,6.09-5.1a2.89,2.89,0,0,0-1.43-2.56,7.37,7.37,0,0,0-4-.93,13.62,13.62,0,0,0-12.71,7.81,19.63,19.63,0,0,0-1.86,8.61,7.84,7.84,0,0,0,2.75,6.3Q418.31,232.12,423.1,232.12Z"/><path class="cls-1" d="M261,316.07l10.5-59.63h11.17l-10.5,59.63Zm5.5-13.86,1.38-10.58h4.71q12.81,0,19.38-4a13,13,0,0,0,6.57-11.8,8.23,8.23,0,0,0-3.53-7.2q-3.53-2.46-10.41-2.46a100,100,0,0,0-14.49.84l1.39-10.58a77.68,77.68,0,0,1,12.8-.84q12.77,0,19.32,4.79t6.55,14.07q0,13.64-9.87,20.7t-29.1,7Z"/><path class="cls-1" d="M303.71,316.07l1.72-9.74h31.16l-1.72,9.74Zm9.41,0,5.2-29.69a4.79,4.79,0,0,0-.4-3.69c-.57-.81-1.64-1.22-3.21-1.22a26.92,26.92,0,0,0-6.84,1l-1.3-10.16a47.06,47.06,0,0,1,5.85-1.19,41.09,41.09,0,0,1,5.73-.4q7.39,0,10.17,4.34t1.26,13l-4.92,28Zm15.32-21.46.55-13.73h2.31a14.9,14.9,0,0,1,4.74-7.52,12.71,12.71,0,0,1,8.23-2.64q6.72,0,9.43,4.6t1.24,13.54H343.35q.58-3.57-.55-5.46a4,4,0,0,0-3.69-1.89,9.07,9.07,0,0,0-4.54,1.22,10.27,10.27,0,0,0-3.73,4.09A24.16,24.16,0,0,0,328.44,294.61Z"/><path class="cls-1" d="M391.62,303.81l2.9,9.57a33.41,33.41,0,0,1-5.42,2.5,19.12,19.12,0,0,1-6.55,1q-8.06,0-11.94-3.57t-3.47-10.46a30.11,30.11,0,0,1,1-5.83c.52-1.91,1.09-3.75,1.72-5.55a51.68,51.68,0,0,0,1.53-5.12c.42-1.62.26-2.85-.5-3.67s-2.07-1.24-3.95-1.24a30.38,30.38,0,0,0-7.68,1l-.88-10.58a27,27,0,0,1,4.95-.94c1.65-.16,3.3-.23,5-.23q9.23,0,12.91,4T383,286.38a39.17,39.17,0,0,1-1.53,5.1c-.6,1.59-1.15,3.16-1.64,4.73a22.85,22.85,0,0,0-.94,5q-.35,4.88,5.33,4.87a11.66,11.66,0,0,0,3.68-.53A21.34,21.34,0,0,0,391.62,303.81Zm-9.57-38.26a6.9,6.9,0,1,1,5.25-2A7.1,7.1,0,0,1,382.05,265.55Z"/><path class="cls-1" d="M399.59,316.07l7.85-44.51h9.95l-.29,10.62-6,33.89Zm26.11,0,4.75-26.87q.68-3.78-.63-5.74a4.72,4.72,0,0,0-4.24-1.95,9.07,9.07,0,0,0-4.54,1.22,10.27,10.27,0,0,0-3.73,4.09,24.16,24.16,0,0,0-2.4,7.79l2-15h1.47a13.17,13.17,0,0,1,4.53-6.57,12.68,12.68,0,0,1,7.81-2.33q7.14,0,10,4.62t1.28,13.6l-4.79,27.13Z"/><path class="cls-1" d="M448,282l1.84-10.45h40.74L488.72,282Zm23.09,34.9q-7.56,0-11.74-3.55t-4.17-10.06c0-1.28,0-2.52.1-3.71s.2-2.52.4-4,.48-3.28.84-5.44l5.63-32h11.55l-5.63,32c-.48,2.72-.81,4.77-1,6.17a35,35,0,0,0-.27,4.46,5,5,0,0,0,1.51,4.07q1.51,1.26,4.83,1.26a32.3,32.3,0,0,0,5.54-.42,43.55,43.55,0,0,0,5.67-1.47l2.06,10a65.83,65.83,0,0,1-6.93,1.89A39.8,39.8,0,0,1,471.08,316.91Z"/><path class="cls-2" d="M12,343.59c39.84-2.28,79.68-3.47,119.52-4.27s79.68-1.21,119.52-1.23,79.68.34,119.52,1.21,79.68,2,119.52,4.29c-39.84,2.29-79.68,3.49-119.52,4.29s-79.68,1.2-119.52,1.21-79.68-.35-119.52-1.22S51.88,345.87,12,343.59Z"/></g><g id="Capa_2" data-name="Capa 2"><path class="cls-3" d="M115.22,150.93H90.45a9.6,9.6,0,0,0-7.57,4.14L31.76,222.59a9,9,0,0,0,0,10.21l52,68.66a9.6,9.6,0,0,0,7.57,4.14h23.91"/><path class="cls-4" d="M109.22,178.16a74.85,74.85,0,0,1-2.34,7.91c-.88,2.56-1.87,5-2.88,7.49-2.07,4.89-4.36,9.6-6.84,14.17s-5.14,9-8,13.33c-1.4,2.17-2.86,4.3-4.33,6.4l-.28.4-.13.2-.07.09,0,0c.07,0,.11-.15.15-.18s.12-.14.13-.18,0,.08,0,.16,0,.16,0,0-.11-.16-.23-.29.06.1.15.22l.28.39.56.79c1.47,2.11,2.93,4.23,4.33,6.39,2.81,4.33,5.49,8.75,8,13.33s4.77,9.29,6.83,14.18c1,2.45,2,4.93,2.88,7.5a69.15,69.15,0,0,1,2.32,7.91,72.55,72.55,0,0,1-7-4.38c-2.23-1.54-4.34-3.16-6.43-4.8-4.15-3.31-8.07-6.8-11.79-10.43s-7.28-7.39-10.67-11.27c-1.7-1.94-3.35-3.92-5-5.91l-.61-.75-.3-.38-.42-.55a19.41,19.41,0,0,1-2.12-3.65,20.43,20.43,0,0,1-1.7-7.46,21.11,21.11,0,0,1,1-7.45,19.38,19.38,0,0,1,1.69-3.7,17.92,17.92,0,0,1,1.18-1.8l.17-.22.07-.1.16-.19.3-.37c1.63-2,3.28-4,5-5.9,3.4-3.88,6.94-7.65,10.67-11.27s7.64-7.12,11.79-10.43c2.09-1.64,4.2-3.27,6.43-4.81A70.55,70.55,0,0,1,109.22,178.16Z"/><path class="cls-3" d="M150.94,150.91h24.77a9.6,9.6,0,0,1,7.57,4.14l51.12,67.52a9,9,0,0,1,0,10.21l-52,68.66a9.6,9.6,0,0,1-7.57,4.14H150.94"/><path class="cls-4" d="M156.94,178.13a72.51,72.51,0,0,1,7,4.4c2.23,1.54,4.34,3.16,6.43,4.81,4.15,3.31,8.06,6.79,11.79,10.42s7.27,7.39,10.67,11.27c1.71,1.94,3.36,3.91,5,5.91l.3.37.15.19.08.1.17.22a17.8,17.8,0,0,1,1.18,1.79,19,19,0,0,1,1.68,3.7,20.93,20.93,0,0,1,1,7.45,20.53,20.53,0,0,1-1.7,7.47,19.33,19.33,0,0,1-2.12,3.64l-.42.56-.3.37-.61.76c-1.63,2-3.28,4-5,5.9-3.39,3.88-6.93,7.66-10.67,11.28s-7.64,7.11-11.79,10.42c-2.09,1.65-4.2,3.27-6.43,4.81a73.8,73.8,0,0,1-7,4.38,69.92,69.92,0,0,1,2.32-7.92c.87-2.56,1.86-5,2.88-7.5,2.06-4.89,4.35-9.6,6.83-14.17s5.15-9,8-13.33c1.4-2.16,2.86-4.29,4.33-6.39l.56-.79.28-.39c.09-.12.24-.32.15-.23s-.18.25-.23.3,0,.06,0,0,0-.21,0-.16.06.06.13.18.08.12.15.17l0,0-.07-.09-.13-.19-.28-.4c-1.48-2.11-2.93-4.23-4.33-6.4-2.81-4.32-5.47-8.75-7.95-13.33s-4.77-9.29-6.84-14.18c-1-2.45-2-4.93-2.88-7.49A73.48,73.48,0,0,1,156.94,178.13Z"/><path class="cls-1" d="M150.57,164.4a79.51,79.51,0,0,1,.62,8.75c.09,2.88,0,5.73,0,8.57q-.3,8.49-1.38,16.78A238.56,238.56,0,0,1,143.21,231a236.71,236.71,0,0,1-10.9,31.33c-2.21,5.11-4.65,10.16-7.37,15.13-1.38,2.49-2.79,5-4.34,7.39a81.84,81.84,0,0,1-5,7.21,82.13,82.13,0,0,1-.64-8.75c-.09-2.89,0-5.73,0-8.57.19-5.67.66-11.26,1.37-16.78a244.52,244.52,0,0,1,17.52-63.83c2.21-5.12,4.65-10.17,7.37-15.14,1.37-2.49,2.78-5,4.33-7.4A81.58,81.58,0,0,1,150.57,164.4Z"/></g></svg>