<svg xmlns="http://www.w3.org/2000/svg" viewBox="0 0 500 500"><defs><style>.cls-1{fill:#1b1464;}.cls-2{fill:#0071bc;}.cls-3{fill:none;stroke:#0071bc;stroke-miterlimit:10;stroke-width:34px;}.cls-4{fill:#f7931e;}</style></defs><g id="Capa_1" data-name="Capa 1"><path class="cls-1" d="M27.62,417.75,38.85,354H50.8L39.57,417.75Zm7.77-14.92L36,391.25q10.92-1.53,18.22-6.79a38.34,38.34,0,0,0,11.54-13.14A57.16,57.16,0,0,0,71.64,354h12a67.73,67.73,0,0,1-8.42,23.25A53.49,53.49,0,0,1,59,394.46,52.67,52.67,0,0,1,35.39,402.83ZM61,417.75l-8.53-27.94,11.36-4.58,10.74,32.52Z"/><path class="cls-1" d="M97.68,418.65q-8.4,0-13.1-4.56T79.89,401.4q0-15.18,7-23.68t19.49-8.49q8.4,0,13.1,4.68t4.69,13q0,15-7,23.34T97.68,418.65Zm2.15-11.55a9.82,9.82,0,0,0,8.7-4.83q3.12-4.83,3.12-13.41a8.67,8.67,0,0,0-1.89-5.95,6.71,6.71,0,0,0-5.3-2.13,10.06,10.06,0,0,0-8.85,4.83q-3.18,4.83-3.19,13.41a8.46,8.46,0,0,0,2,6A7,7,0,0,0,99.83,407.1Z"/><path class="cls-1" d="M139.75,418.69q-6.51,0-10.08-3.5t-3.57-9.88a30.92,30.92,0,0,1,3.57-14.87,34.09,34.09,0,0,1,10-11.39,47.77,47.77,0,0,1,15-7.28,65.92,65.92,0,0,1,18.71-2.54h.81L167,380.78a39.87,39.87,0,0,0-14.4,3.1,26.68,26.68,0,0,0-10.24,7.39,15.81,15.81,0,0,0-3.8,10.35,5.69,5.69,0,0,0,1.35,4.18,5.61,5.61,0,0,0,4.13,1.35q5.47,0,9.43-5.08t5.75-14.28l-.22,19.9h-5.21l4.67-7q-2.16,8.53-7,13.26A16.2,16.2,0,0,1,139.75,418.69Zm30.59-.49a37.22,37.22,0,0,1-5.07-.34,11.64,11.64,0,0,1-4.45-1.48A6.38,6.38,0,0,1,158,412.9a12.38,12.38,0,0,1-.09-6.38l.85-16.58,3.73-21c.51-2.76.42-4.77-.25-6a3.75,3.75,0,0,0-3.66-1.91,16.19,16.19,0,0,0-2.72.22,22.22,22.22,0,0,0-2.9.72l-1.48-11.32c1.35-.33,2.7-.61,4.07-.83a25.71,25.71,0,0,1,4.11-.34q9.26,0,12.91,5.42t1.6,17.22l-5.08,29.07a15.77,15.77,0,0,0-.31,4,2.5,2.5,0,0,0,1.43,2.13,10.76,10.76,0,0,0,4.41.65h1.88l-1.79,10.29Z"/><path class="cls-1" d="M201.5,407.1a26.73,26.73,0,0,0,6.92-1,33.65,33.65,0,0,0,7.1-2.78l3.1,10.65a31.49,31.49,0,0,1-9.12,3.59,42.88,42.88,0,0,1-9.3,1.08q-9.88,0-15.43-5.1t-5.55-14.17a32.9,32.9,0,0,1,3.64-15.84A26.3,26.3,0,0,1,193,373a30,30,0,0,1,15.26-3.78q7.36,0,11.52,3.69T224,383.16q0,8.67-8.89,12.71t-26,4.31l-1.84-8.53q11.69-.09,18.2-2.09T212,384.1a3.09,3.09,0,0,0-1.53-2.74,7.9,7.9,0,0,0-4.31-1,14.91,14.91,0,0,0-8.13,2.21,14.73,14.73,0,0,0-5.46,6.15,21,21,0,0,0-2,9.21,8.45,8.45,0,0,0,2.94,6.74Q196.39,407.1,201.5,407.1Z"/><path class="cls-1" d="M225.29,417.75,236.52,354h11.95l-11.23,63.79Zm5.89-14.83,1.48-11.32h5q13.71,0,20.73-4.26a13.86,13.86,0,0,0,7-12.63,8.77,8.77,0,0,0-3.77-7.7q-3.78-2.62-11.14-2.63a106.73,106.73,0,0,0-15.5.9L236.52,354a83.21,83.21,0,0,1,13.7-.9q13.66,0,20.67,5.12t7,15.05q0,14.59-10.56,22.15t-31.13,7.54Z"/><path class="cls-1" d="M271,417.75l1.84-10.42h33.33l-1.84,10.42Zm10.06,0L286.64,386c.33-1.77.19-3.08-.43-3.95s-1.76-1.31-3.43-1.31a28.76,28.76,0,0,0-7.33,1l-1.39-10.87a51,51,0,0,1,6.27-1.28,43.67,43.67,0,0,1,6.13-.43q7.91,0,10.87,4.65t1.35,14l-5.26,30Zm16.39-23,.59-14.69h2.47a15.91,15.91,0,0,1,5.08-8,13.58,13.58,0,0,1,8.8-2.83q7.19,0,10.09,4.92t1.32,14.49h-12.4c.42-2.55.23-4.49-.58-5.84a4.25,4.25,0,0,0-3.95-2,9.68,9.68,0,0,0-4.86,1.3,11,11,0,0,0-4,4.38A26,26,0,0,0,297.46,394.79Z"/><path class="cls-1" d="M365.05,404.63l3.1,10.24a36.79,36.79,0,0,1-5.79,2.68,20.71,20.71,0,0,1-7,1.1q-8.62,0-12.78-3.82c-2.77-2.55-4-6.27-3.7-11.19a32,32,0,0,1,1.05-6.24c.55-2,1.17-4,1.84-5.93A55.21,55.21,0,0,0,343.4,386q.68-2.61-.54-3.93c-.81-.88-2.21-1.33-4.22-1.33a32.26,32.26,0,0,0-8.22,1l-.94-11.32a28.13,28.13,0,0,1,5.3-1c1.76-.17,3.53-.25,5.3-.25q9.89,0,13.81,4.24T355.8,386a42.21,42.21,0,0,1-1.64,5.46c-.64,1.69-1.23,3.37-1.75,5.05a24.17,24.17,0,0,0-1,5.39c-.24,3.48,1.66,5.21,5.7,5.21a12.26,12.26,0,0,0,3.93-.56A22,22,0,0,0,365.05,404.63Zm-10.24-40.92a7.39,7.39,0,1,1,5.62-2.16A7.57,7.57,0,0,1,354.81,363.71Z"/><path class="cls-1" d="M373.57,417.75l8.4-47.62h10.65l-.32,11.37-6.38,36.25Zm27.94,0L406.59,389c.48-2.7.25-4.74-.67-6.13a5,5,0,0,0-4.54-2.09,9.61,9.61,0,0,0-4.85,1.3,11,11,0,0,0-4,4.38,26,26,0,0,0-2.56,8.33l2.15-16h1.58a14,14,0,0,1,4.85-7,13.47,13.47,0,0,1,8.35-2.5q7.64,0,10.72,4.94T419,388.73l-5.12,29Z"/><path class="cls-1" d="M425.35,381.32l2-11.19H470.9l-2,11.19Zm24.71,37.33q-8.08,0-12.56-3.8T433,404.09c0-1.37,0-2.7.11-4s.22-2.7.43-4.27.51-3.51.9-5.82l6-34.27h12.35l-6,34.27q-.76,4.37-1.05,6.61a35.85,35.85,0,0,0-.3,4.76,5.34,5.34,0,0,0,1.62,4.35q1.62,1.35,5.17,1.35a34.67,34.67,0,0,0,5.93-.45,46.75,46.75,0,0,0,6.06-1.57l2.2,10.69a68.8,68.8,0,0,1-7.41,2A42.3,42.3,0,0,1,450.06,418.65Z"/><path class="cls-2" d="M9.8,435.53c39.84-2.28,79.68-3.47,119.52-4.28S209,430.05,248.84,430s79.68.33,119.52,1.2,79.68,2,119.52,4.3C448,437.82,408.2,439,368.36,439.82S288.68,441,248.84,441s-79.68-.34-119.52-1.22S49.64,437.8,9.8,435.53Z"/></g><g id="Capa_2" data-name="Capa 2"><path class="cls-3" d="M220.82,55.38H180.36c-4.64,0-9.09,2.43-12.37,6.76L84.48,172.45a14.6,14.6,0,0,0,0,16.68L169.4,301.29c3.28,4.34,7.72,6.77,12.36,6.77h39.06"/><path class="cls-4" d="M211,99.86a117,117,0,0,1-3.85,12.89Q205,119,202.43,125q-5.09,12-11.21,23.12c-4.05,7.47-8.41,14.71-13,21.77-2.29,3.53-4.66,7-7.07,10.45l-.45.64-.23.33-.11.15,0,0c.1-.07.16-.22.23-.27a.35.35,0,0,0,.07-.12.09.09,0,0,0,.06-.06c0-.07.07,0,.07-.08s0,.15.05.31,0,.29-.07.09a.13.13,0,0,0-.06-.07.67.67,0,0,0-.07-.11c-.07-.05-.13-.19-.23-.28s.11.18.25.37l.46.64.91,1.29c2.41,3.44,4.79,6.91,7.09,10.44,4.6,7.06,9,14.28,13,21.76s7.82,15.15,11.2,23.13q2.53,6,4.72,12.23a117.3,117.3,0,0,1,3.83,12.91,117.59,117.59,0,0,1-11.38-7.19q-5.43-3.79-10.49-7.86-10.14-8.15-19.23-17.06c-6.09-5.93-11.86-12.1-17.41-18.44-2.77-3.16-5.46-6.4-8.12-9.65l-1-1.23-.49-.62c-.18-.22-.26-.3-.69-.9a29.45,29.45,0,0,1-1.92-2.93c-.28-.49-.57-1-.82-1.49l-.71-1.51a34.18,34.18,0,0,1-1.08-24.25,30.64,30.64,0,0,1,1.19-3l.71-1.5.83-1.49a31.31,31.31,0,0,1,1.93-2.92l.27-.36.13-.16.24-.31.5-.61c2.66-3.25,5.36-6.48,8.14-9.64,5.55-6.34,11.33-12.5,17.42-18.43s12.47-11.64,19.22-17.07q5.07-4.05,10.48-7.87A120.56,120.56,0,0,1,211,99.86Z"/><path class="cls-3" d="M279.18,55.34h40.46c4.64,0,9.09,2.43,12.37,6.76l83.51,110.31a14.6,14.6,0,0,1,0,16.68L330.6,301.26c-3.28,4.33-7.72,6.76-12.36,6.76H279.18"/><path class="cls-4" d="M289,99.82a120.56,120.56,0,0,1,11.36,7.2q5.41,3.81,10.48,7.88Q321,123,330.05,132c6.09,5.93,11.87,12.09,17.42,18.43,2.78,3.16,5.48,6.39,8.14,9.64l.5.61.24.31.13.16.27.36a32.69,32.69,0,0,1,1.93,2.92l.83,1.49.71,1.5a31.64,31.64,0,0,1,1.19,3,34.18,34.18,0,0,1-1.08,24.25l-.71,1.51c-.25.5-.54,1-.82,1.49a29.45,29.45,0,0,1-1.92,2.93c-.43.6-.51.68-.69.91l-.49.61-1,1.23c-2.66,3.26-5.35,6.49-8.12,9.65-5.55,6.34-11.32,12.51-17.41,18.44S316.71,243.06,310,248.49q-5.07,4.06-10.49,7.86a117.59,117.59,0,0,1-11.38,7.19,117.3,117.3,0,0,1,3.83-12.91q2.18-6.25,4.72-12.23c3.38-8,7.13-15.67,11.2-23.13s8.42-14.7,13-21.76c2.3-3.53,4.68-7,7.09-10.44l.91-1.29.46-.63c.14-.2.39-.53.25-.37s-.16.22-.23.27a.75.75,0,0,0-.07.12.12.12,0,0,0-.06.06c-.08.2-.06.07-.07-.09s0-.37.05-.31.05,0,.07.08a.13.13,0,0,0,.06.07.41.41,0,0,0,.07.11c.07,0,.13.2.23.28l0,0-.11-.15-.23-.32-.45-.65c-2.41-3.45-4.78-6.92-7.07-10.45-4.6-7.06-9-14.3-13-21.77s-7.82-15.15-11.21-23.12q-2.54-6-4.73-12.23A117,117,0,0,1,289,99.82Z"/><path class="cls-1" d="M278.57,77.39a134.2,134.2,0,0,1,1,14.28q.17,7-.1,14-.52,13.88-2.3,27.4a391.55,391.55,0,0,1-10.76,53.11,385.24,385.24,0,0,1-17.77,51.19q-5.38,12.54-12,24.75-3.31,6.09-7.06,12.08A133.29,133.29,0,0,1,221.43,286a131.72,131.72,0,0,1-1-14.29q-.18-7.05.08-14,.51-13.87,2.3-27.4a386.66,386.66,0,0,1,10.8-53.1A391.62,391.62,0,0,1,251.42,126q5.4-12.54,12-24.75,3.31-6.09,7-12.08A133,133,0,0,1,278.57,77.39Z"/></g></svg>